<?xml version="1.0" encoding="UTF-8" standalone="no"?>
<svg width="16px" height="16px" viewBox="0 0 16 16" version="1.1" xmlns="http://www.w3.org/2000/svg" xmlns:xlink="http://www.w3.org/1999/xlink">
    <!-- Generator: Sketch 40 (33762) - http://www.bohemiancoding.com/sketch -->
    <title>checkbox_off</title>
    <desc>Created with Sketch.</desc>
    <defs></defs>
    <g id="补贴上限" stroke="none" stroke-width="1" fill="none" fill-rule="evenodd">
        <g id="Artboard" transform="translate(-98.000000, -78.000000)" fill="#C0CCDA">
            <path d="M99.3333333,90.0037973 C99.3333333,91.4746588 100.525409,92.6666667 101.996203,92.6666667 L110.003797,92.6666667 C111.474659,92.6666667 112.666667,91.4745907 112.666667,90.0037973 L112.666667,81.9962027 C112.666667,80.5253412 111.474591,79.3333333 110.003797,79.3333333 L101.996203,79.3333333 C100.525341,79.3333333 99.3333333,80.5254093 99.3333333,81.9962027 L99.3333333,90.0037973 Z M101.996203,78 L110.003797,78 C112.210839,78 114,79.7888304 114,81.9962027 L114,90.0037973 C114,92.2108391 112.21117,94 110.003797,94 L101.996203,94 C99.7891609,94 98,92.2111696 98,90.0037973 L98,81.9962027 C98,79.7891609 99.7888304,78 101.996203,78 Z" id="checkbox_off"></path>
        </g>
    </g>
</svg>