<?xml version="1.0" encoding="UTF-8" standalone="no"?>
<svg width="16px" height="16px" viewBox="0 0 16 16" version="1.1" xmlns="http://www.w3.org/2000/svg" xmlns:xlink="http://www.w3.org/1999/xlink">
    <!-- Generator: Sketch 40 (33762) - http://www.bohemiancoding.com/sketch -->
    <title>checkbox_on</title>
    <desc>Created with Sketch.</desc>
    <defs></defs>
    <g id="补贴上限" stroke="none" stroke-width="1" fill="none" fill-rule="evenodd">
        <g id="Artboard" transform="translate(-132.000000, -78.000000)" fill="#20A0FF">
            <path d="M132,81.9962027 C132,79.7891609 133.78883,78 135.996203,78 L144.003797,78 C146.210839,78 148,79.7888304 148,81.9962027 L148,90.0037973 C148,92.2108391 146.21117,94 144.003797,94 L135.996203,94 C133.789161,94 132,92.2111696 132,90.0037973 L132,81.9962027 Z M137.698564,89.8954727 C137.928214,90.1318772 138.300826,90.1370767 138.541509,89.8963942 L145.089943,83.3479599 C145.403039,83.0348634 145.402466,82.5266599 145.087164,82.2113581 L144.969466,82.0936604 C144.654835,81.779029 144.147907,81.7758387 143.836075,82.0876707 L138.171522,87.7522235 L136.055486,85.6361881 C135.740937,85.3216388 135.231556,85.3210349 134.916254,85.6363368 L134.798556,85.7540345 C134.483925,86.0686658 134.483805,86.5861628 134.785566,86.8967982 L137.698564,89.8954727 Z" id="checkbox_on"></path>
        </g>
    </g>
</svg>