<?xml version="1.0" encoding="UTF-8" standalone="no"?>
<svg width="16px" height="16px" viewBox="0 0 16 16" version="1.1" xmlns="http://www.w3.org/2000/svg" xmlns:xlink="http://www.w3.org/1999/xlink">
    <!-- Generator: Sketch 40 (33762) - http://www.bohemiancoding.com/sketch -->
    <title>checkbox_半选</title>
    <desc>Created with Sketch.</desc>
    <defs></defs>
    <g id="补贴上限" stroke="none" stroke-width="1" fill="none" fill-rule="evenodd">
        <g id="Artboard" transform="translate(-48.000000, -78.000000)" fill="#20A0FF">
            <path d="M48,81.9962027 C48,79.7891609 49.7888304,78 51.9962027,78 L60.0037973,78 C62.2108391,78 64,79.7888304 64,81.9962027 L64,90.0037973 C64,92.2108391 62.2111696,94 60.0037973,94 L51.9962027,94 C49.7891609,94 48,92.2111696 48,90.0037973 L48,81.9962027 Z M51.5030483,86.25 C51.5030483,85.5596441 52.0660386,85 52.7544598,85 L59.2516369,85 C59.9427723,85 60.5030483,85.554831 60.5030483,86.25 C60.5030483,86.9403559 59.940058,87.5 59.2516369,87.5 L52.7544598,87.5 C52.0633243,87.5 51.5030483,86.945169 51.5030483,86.25 Z" id="checkbox_半选"></path>
        </g>
    </g>
</svg>